<mxfile host="app.diagrams.net" modified="2023-08-13T04:32:56.241Z" agent="Mozilla/5.0 (Macintosh; Intel Mac OS X 10_15_7) AppleWebKit/537.36 (KHTML, like Gecko) Chrome/115.0.0.0 Safari/537.36" version="21.5.2" etag="ZrQ8Zm23Yad1yr4OR7NN" type="github">
  <diagram name="Page-1" id="JUeN7pyW9k_pwQHl4vyu">
    <mxGraphModel>
      <root>
        <mxCell id="0" />
        <mxCell id="1" parent="0" />
      </root>
    </mxGraphModel>
  </diagram>
</mxfile>
